<?xml version="1.0" encoding="UTF-8"?>
<svg id="_Слой_1" data-name="Слой 1" xmlns="http://www.w3.org/2000/svg" viewBox="0 0 1080 1080">
  <defs>
    <style>
      .cls-1 {
        fill: #FEAE3F;
      }

      .cls-1, .cls-2 {
        stroke-width: 0px;
      }

      .cls-2 {
        fill: #fff;
      }
    </style>
  </defs>
  <g>
    <path class="cls-2" d="m986.99,447.86c9.72,1.85,17.18,9.64,18.7,19.41,3.67,23.7,5.57,47.98,5.57,72.73s-1.88,48.81-5.53,72.42c-1.51,9.78-8.98,17.57-18.7,19.42l-49.82,9.49-.95.17c-9.45,36.94-24.06,72.82-43.99,106.44l.46.67,28.62,42.07c5.56,8.18,5.33,18.96-.5,26.94-28.67,39.26-63.26,73.92-102.46,102.67-7.99,5.86-18.79,6.1-26.98.53l-42.28-28.76-.59-.39c-33.62,19.92-69.5,34.51-106.44,43.99l-.13.72-9.62,50.59c-1.85,9.72-9.63,17.18-19.4,18.7-23.77,3.69-48.14,5.61-72.95,5.61s-48.66-1.88-72.2-5.5c-9.69-1.49-17.35-9.03-19.19-18.66l-9.7-50.97-.09-.43c-36.96-9.43-72.86-24.06-106.53-43.99l-.15.04c-5.57-3.32-11.05-6.76-16.45-10.32-12.29-8.12-14.02-25.51-3.6-35.93l73.48-73.48c7.43-7.43,18.87-8.88,28.04-3.75,37.67,21.07,81.11,33.08,127.33,33.08,144.36,0,261.38-117.02,261.38-261.35,0-46.24-11.99-89.68-33.07-127.35-5.13-9.17-3.68-20.61,3.75-28.04l136.78-136.78,46.52-46.52c12.61-12.61,33.42,1.25,26.64,17.75l-34.92,84.98-30.93,75.25-.35.85c8.02,18.93,14.52,38.37,19.58,58.1l.82.15,49.85,9.49Z"/>
    <path class="cls-1" d="m769.21,234.16l-73.46,73.46c-7.42,7.42-18.83,8.88-27.99,3.78-37.55-20.88-80.79-32.77-126.81-32.77-144.33,0-261.35,117.02-261.35,261.37,0,46,11.89,89.23,32.77,126.78,5.1,9.17,3.64,20.58-3.78,27.99l-183.64,183.64c-12.61,12.61-33.42-1.25-26.64-17.75l34.33-83.55,31.74-77.22.13-.3c-8.02-18.93-14.52-38.37-19.58-58.1l-.33-.07-51.68-9.83c-9.64-1.83-17.17-9.49-18.66-19.19-3.63-23.6-5.53-47.78-5.53-72.41s1.9-48.84,5.54-72.46c1.51-9.78,8.98-17.57,18.7-19.42l51.7-9.84.33-.07c9.45-36.94,24.06-72.82,43.99-106.44l-.07-.11-29.52-43.37c-5.58-8.2-5.34-19.01.53-27,28.73-39.1,63.34-73.62,102.54-102.21,7.99-5.83,18.76-6.05,26.93-.49l43.21,29.39.11.07c33.62-19.92,69.5-34.51,106.44-43.99l.07-.3,9.68-50.9c1.83-9.64,9.49-17.17,19.19-18.66,23.44-3.6,47.45-5.46,71.91-5.46s49.45,1.94,73.36,5.68c9.76,1.53,17.54,8.99,19.38,18.7l9.63,50.59.07.33c36.96,9.43,72.86,24.06,106.53,43.99l.22-.04c5.55,3.29,11.02,6.7,16.4,10.24,12.33,8.11,14.06,25.52,3.63,35.95Z"/>
  </g>
  <g>
    <path class="cls-2" d="m530.41,468.25h-72.98c-5.73,0-11.15,2.56-14.79,6.99l-87.18,106.12c-5.8,7.06-5.8,17.24,0,24.3l87.18,106.16c3.64,4.43,9.06,6.99,14.79,6.99h72.97c16.17,0,25.05-18.8,14.79-31.29l-67.22-81.86c-5.8-7.06-5.8-17.24,0-24.3l67.23-81.83c10.26-12.49,1.38-31.29-14.79-31.29Z"/>
    <path class="cls-1" d="m630.86,350.32h-72.97c-16.17,0-25.05,18.8-14.79,31.29l67.23,81.86c5.8,7.06,5.8,17.24,0,24.3l-67.23,81.83c-10.26,12.49-1.38,31.29,14.79,31.29h72.98c5.73,0,11.15-2.57,14.79-6.99l87.18-106.13c5.8-7.06,5.8-17.24,0-24.3l-87.18-106.15c-3.64-4.43-9.06-6.99-14.79-6.99Z"/>
  </g>
</svg>